#N canvas 181 56 1512 916 12;
#X text 151 116 BPM;
#X obj 120 148 loadbang;
#X obj 187 93 loadbang;
#X obj 169 176 bng 15 250 50 0 empty empty empty 17 7 0 10 -262144
-1 -1;
#X obj 169 202 /;
#X text 370 13 Clock Multiplication;
#X obj 168 259 send 4th_time;
#X obj 244 41 receive on;
#X obj 282 141 metro;
#X obj 327 71 * 4;
#X obj 327 130 send whole_time;
#X obj 282 171 bng 15 250 50 0 empty empty empty 17 7 0 10 -262144
-1 -1;
#X obj 282 197 send whole_note;
#X obj 464 41 receive on;
#X obj 502 141 metro;
#X obj 502 171 bng 15 250 50 0 empty empty empty 17 7 0 10 -262144
-1 -1;
#X obj 327 41 receive 4th_time;
#X obj 547 41 receive 4th_time;
#X obj 547 71 * 1;
#X obj 502 197 send 4th_note;
#X obj 682 41 receive on;
#X obj 720 141 metro;
#X obj 720 171 bng 15 250 50 0 empty empty empty 17 7 0 10 -262144
-1 -1;
#X obj 765 41 receive 4th_time;
#X text 1047 13 Clock Division;
#X obj 765 71 * 2;
#X obj 765 130 send half_time;
#X obj 720 197 send half_note;
#X obj 890 41 receive on;
#X obj 928 141 metro;
#X obj 928 171 bng 15 250 50 0 empty empty empty 17 7 0 10 -262144
-1 -1;
#X obj 973 41 receive 4th_time;
#X obj 973 71 / 2;
#X obj 973 130 send 8th_time;
#X obj 928 197 send 8th_note;
#X obj 1100 41 receive on;
#X obj 1138 141 metro;
#X obj 1138 171 bng 15 250 50 0 empty empty empty 17 7 0 10 -262144
-1 -1;
#X obj 1183 41 receive 4th_time;
#X obj 1183 71 / 4;
#X obj 1183 130 send 16th_time;
#X obj 1138 197 send 16th_note;
#X text 38 160 on/off;
#X obj 38 188 tgl 15 1 empty empty empty 17 7 0 10 -262144 -1 -1 1
1;
#X obj 38 214 send on;
#X floatatom 187 152 5 0 0 0 - - -;
#X floatatom 327 101 5 0 0 0 - - -;
#X floatatom 547 101 5 0 0 0 - - -;
#X floatatom 765 101 5 0 0 0 - - -;
#X floatatom 973 101 5 0 0 0 - - -;
#X floatatom 1183 101 5 0 0 0 - - -;
#X obj 100 304 receive on;
#X obj 100 334 sel 0;
#X obj 100 364 bng 15 250 50 0 empty empty empty 17 7 0 10 -262144
-1 -1;
#X obj 30 304 loadbang;
#X text 43 362 reset;
#X msg 100 390 -1;
#X obj 152 357 receive whole_note;
#X obj 152 387 bng 15 250 50 0 empty empty empty 17 7 0 10 -262144
-1 -1;
#X obj 152 413 int 1;
#X obj 202 439 + 1;
#X floatatom 152 443 5 0 0 0 - - -;
#X obj 152 472 % 2;
#X obj 152 502 + 1;
#X obj 152 532 sel 1;
#X obj 152 562 bng 15 250 50 0 empty empty empty 17 7 0 10 -262144
-1 -1;
#X obj 152 588 send chord;
#X text 335 214 Bass;
#X obj 317 242 r chord;
#X obj 329 425 sel 0;
#X obj 329 455 bng 15 250 50 0 empty empty empty 17 7 0 10 -262144
-1 -1;
#X obj 392 453 bng 15 250 50 0 empty empty empty 17 7 0 10 -262144
-1 -1;
#X msg 392 479 87.31;
#X msg 329 481 130.81;
#X text 357 448 C;
#X text 406 448 F;
#X floatatom 327 542 5 0 0 0 - - -;
#X obj 327 571 phasor~;
#X obj 328 635 *~;
#X obj 333 686 send~ bass;
#X text 428 520 Envelope;
#X obj 416 590 bng 15 250 50 0 empty empty empty 17 7 0 10 -262144
-1 -1;
#X obj 431 540 r whole_time;
#X obj 419 563 * 2;
#X floatatom 450 560 5 0 0 0 - - -;
#X obj 449 605 delay;
#X obj 502 562 r on;
#X obj 502 592 sel 0;
#X obj 502 622 delay 5;
#X obj 662 440 tgl 15 0 empty empty empty 17 7 0 10 -262144 -1 -1 1
1;
#X floatatom 667 496 5 0 0 0 - - -;
#X obj 680 604 phasor~;
#X obj 663 648 lop~ 100;
#X obj 665 677 *~;
#X text 802 438 Envelope;
#X obj 802 466 bng 15 250 50 0 empty empty empty 17 7 0 10 -262144
-1 -1;
#X msg 758 553 1 500;
#X obj 857 462 r whole_time;
#X floatatom 857 494 5 0 0 0 - - -;
#X obj 823 553 delay;
#X obj 909 493 r on;
#X obj 909 523 sel 0;
#X obj 909 553 delay 5;
#X text 662 382 Melody;
#X obj 662 410 r whole_note;
#X obj 663 739 send~ ambient_pad;
#X obj 674 523 * 1.001;
#X floatatom 674 553 5 0 0 0 - - -;
#X obj 674 576 phasor~;
#X msg 823 583 0 500;
#X obj 857 523 - 500;
#X obj 143 714 r~ bass;
#X obj 203 713 r~ ambient_pad;
#X obj 194 882 dac~;
#X obj 661 462 Chords_Scales;
#X obj 976 329 tgl 15 0 empty empty empty 17 7 0 10 -262144 -1 -1 1
1;
#X floatatom 976 389 5 0 0 0 - - -;
#X obj 976 477 phasor~;
#X obj 976 507 lop~ 100;
#X obj 976 537 *~;
#X text 1117 328 Envelope;
#X obj 1117 356 bng 15 250 50 0 empty empty empty 17 7 0 10 -262144
-1 -1;
#X msg 1073 409 1 500;
#X obj 1187 331 r whole_time;
#X floatatom 1172 383 5 0 0 0 - - -;
#X obj 1138 439 delay;
#X obj 1225 383 r on;
#X obj 1225 413 sel 0;
#X obj 1225 443 delay 5;
#X text 977 269 Melody;
#X obj 976 418 * 1.001;
#X floatatom 976 448 5 0 0 0 - - -;
#X obj 989 462 phasor~;
#X msg 1138 469 0 500;
#X obj 1172 412 - 500;
#X obj 976 329 Chords_Scales;
#X obj 976 359 * 2;
#X obj 978 629 send~ ambient_padl;
#X msg 120 178 60000;
#X obj 64 753 r~ ambient_padl;
#X obj 328 605 lop~ 90;
#X obj 1037 300 r half_note;
#X obj 1163 552 tgl 15 0 empty empty empty 17 7 0 10 -262144 -1 -1
1 1;
#X floatatom 1161 628 5 0 0 0 - - -;
#X obj 1155 731 phasor~;
#X obj 1162 781 lop~ 100;
#X obj 1164 805 *~;
#X text 1301 552 Envelope;
#X obj 1301 580 bng 15 250 50 0 empty empty empty 17 7 0 10 -262144
-1 -1;
#X msg 1257 677 1 500;
#X obj 1356 576 r whole_time;
#X floatatom 1356 606 5 0 0 0 - - -;
#X obj 1322 677 delay;
#X obj 1409 617 r on;
#X obj 1409 647 sel 0;
#X obj 1409 677 delay 5;
#X text 1161 484 Melody;
#X obj 1161 657 * 1.001;
#X floatatom 1161 687 5 0 0 0 - - -;
#X obj 1195 710 phasor~;
#X msg 1322 707 0 500;
#X obj 1356 635 - 500;
#X obj 1161 568 Chords_Scales;
#X obj 1161 598 * 2;
#X obj 1166 987 send~ ambient_padr;
#X obj 1161 512 r 8th_note;
#X obj 234 751 r~ ambient_padr;
#X obj 330 658 *~ 0.6;
#X msg 449 635 0 500;
#X msg 394 626 1 500;
#X obj 449 582 - 500;
#X obj 394 655 vline~;
#X obj 756 623 vline~;
#X obj 1070 485 vline~;
#X obj 1255 739 vline~;
#X obj 663 707 *~ 0.6;
#X obj 720 257 bng 15 250 50 0 empty empty empty 17 7 0 10 -262144
-1 -1;
#X obj 720 227 receive knobOn;
#X obj 720 283 int 1;
#X obj 783 304 + 1;
#X floatatom 720 343 5 0 0 0 - - -;
#X obj 638 244 loadbang 0;
#X obj 327 334 sel 0;
#X obj 408 307 sel 1;
#X obj 488 309 sel 2;
#X msg 94 60 -200;
#X msg 138 61 200;
#X obj 135 36 loadbang;
#X floatatom 62 240 5 0 0 0 - - -;
#X floatatom 168 230 5 0 0 0 - - -;
#X obj 103 113 t b f;
#X obj 95 85 scale_abs;
#X msg 326 362 set 130.81;
#X msg 325 393 set 87.31;
#X obj 284 270 int 1;
#X obj 330 271 + 1;
#X floatatom 284 330 5 0 0 0 - - -;
#X obj 392 423 sel 1;
#X obj 446 453 bng 15 250 50 0 empty empty empty 17 7 0 10 -262144
-1 -1;
#X msg 446 479 130.81;
#X obj 446 423 sel 2;
#X obj 501 422 sel 3;
#X obj 506 453 bng 15 250 50 0 empty empty empty 17 7 0 10 -262144
-1 -1;
#X msg 506 479 87.31;
#X text 520 448 F;
#X obj 284 300 % 4;
#X obj 98 15 r crankValue2;
#X msg 187 121 80;
#X msg 198 60 120, f 4;
#X msg 166 60 20;
#X obj 47 641 r sliderValue2;
#X obj 47 707 scale_abs;
#X msg 63 685 0;
#X msg 97 687 1;
#X msg 133 685 0;
#X msg 173 690 0.5;
#X obj 107 663 loadbang;
#X msg 511 366 set 87 307;
#X obj 969 675 r sliderValue2;
#X obj 969 740 scale_abs;
#X msg 985 718 0;
#X msg 1019 720 1;
#X msg 1055 718 0;
#X msg 1095 723 0.5;
#X obj 1029 696 loadbang;
#X msg 408 352 set 82.407, f 7;
#X msg 409 329 set 87.31;
#X msg 407 392 set 110;
#X floatatom 44 814 5 0 0 0 - - -;
#X floatatom 18 668 5 0 0 0 - - -;
#X obj 169 799 *~ 0.25;
#X obj 224 799 *~ 0.25;
#X obj 978 599 *~ 0.25;
#X obj 1165 843 *~ 0.25;
#X msg 500 343 set 130.81;
#X msg 506 390 set 146.83;
#X obj 720 313 % 3;
#X obj 269 868 lop~ 7000;
#X obj 448 685 hsl 128 15 1 100 1 0 empty empty empty -2 -8 0 10 -262144
-1 -1 12700 1;
#X obj 452 800 scale_abs;
#X msg 393 822 \$1 100;
#X obj 390 847 line;
#X obj 145 860 lop~ 7000;
#X msg 500 767 100;
#X obj 248 838 hip~ 5;
#X obj 124 830 hip~ 5;
#X obj 527 737 loadbang;
#X obj 442 711 r filterValue2;
#X msg 466 767 1;
#X msg 535 769 50;
#X msg 569 765 6000;
#X obj 822 773 tgl 15 0 empty empty empty 17 7 0 10 -262144 -1 -1 0
1;
#X floatatom 823 860 5 0 0 0 - - -;
#X obj 817 963 phasor~;
#X obj 824 1013 lop~ 100;
#X obj 826 1037 *~;
#X text 963 784 Envelope;
#X obj 963 812 bng 15 250 50 0 empty empty empty 17 7 0 10 -262144
-1 -1;
#X msg 919 909 1 500;
#X obj 1018 808 r whole_time;
#X floatatom 1018 838 5 0 0 0 - - -;
#X obj 984 909 delay;
#X obj 1071 849 r on;
#X obj 1071 879 sel 0;
#X obj 1071 909 delay 5;
#X text 823 716 Melody;
#X obj 823 889 * 1.001;
#X floatatom 823 919 5 0 0 0 - - -;
#X obj 857 942 phasor~;
#X msg 984 939 0 500;
#X obj 1018 867 - 500;
#X obj 823 800 Chords_Scales;
#X obj 823 830 * 2;
#X obj 917 971 vline~;
#X obj 925 1029 *~ 0.25;
#X obj 823 744 r 16th_note;
#X obj 741 793 spigot;
#X obj 1065 531 sel 0;
#X msg 1059 560 1;
#X msg 1096 560 0;
#X obj 1064 597 spigot;
#X obj 723 674 sel 0;
#X obj 768 674 sel 1;
#X obj 816 674 sel 2;
#X msg 720 700 0.6;
#X obj 734 646 trigger int int int;
#X msg 807 700 0.25;
#X msg 770 701 0.4;
#X obj 1255 834 sel 0;
#X obj 1300 834 sel 1;
#X obj 1348 834 sel 2;
#X obj 1266 806 trigger int int int;
#X msg 1252 860 0.25;
#X msg 1302 861 0.45;
#X obj 1302 422 sel 0;
#X obj 1347 422 sel 1;
#X obj 1395 422 sel 2;
#X obj 1313 394 trigger int int int;
#X msg 1299 448 0.25;
#X msg 1349 449 0.25;
#X msg 1404 450 0.45;
#X msg 1357 862 0.35;
#X connect 1 0 138 0;
#X connect 2 0 207 0;
#X connect 3 0 4 0;
#X connect 4 0 189 0;
#X connect 7 0 8 0;
#X connect 8 0 11 0;
#X connect 9 0 46 0;
#X connect 11 0 12 0;
#X connect 13 0 14 0;
#X connect 14 0 15 0;
#X connect 15 0 19 0;
#X connect 16 0 9 0;
#X connect 17 0 18 0;
#X connect 18 0 47 0;
#X connect 20 0 21 0;
#X connect 21 0 22 0;
#X connect 22 0 27 0;
#X connect 23 0 25 0;
#X connect 25 0 48 0;
#X connect 28 0 29 0;
#X connect 29 0 30 0;
#X connect 30 0 34 0;
#X connect 31 0 32 0;
#X connect 32 0 49 0;
#X connect 35 0 36 0;
#X connect 36 0 37 0;
#X connect 37 0 41 0;
#X connect 38 0 39 0;
#X connect 39 0 50 0;
#X connect 43 0 44 0;
#X connect 45 0 4 1;
#X connect 45 0 3 0;
#X connect 46 0 10 0;
#X connect 46 0 8 1;
#X connect 47 0 14 1;
#X connect 48 0 26 0;
#X connect 48 0 21 1;
#X connect 49 0 33 0;
#X connect 49 0 29 1;
#X connect 50 0 40 0;
#X connect 50 0 36 1;
#X connect 51 0 52 0;
#X connect 52 0 53 0;
#X connect 53 0 56 0;
#X connect 54 0 53 0;
#X connect 56 0 59 0;
#X connect 57 0 58 0;
#X connect 58 0 59 0;
#X connect 59 0 60 0;
#X connect 59 0 61 0;
#X connect 60 0 59 1;
#X connect 61 0 62 0;
#X connect 62 0 63 0;
#X connect 63 0 64 0;
#X connect 64 0 65 0;
#X connect 65 0 66 0;
#X connect 68 0 81 0;
#X connect 68 0 194 0;
#X connect 69 0 70 0;
#X connect 70 0 73 0;
#X connect 71 0 72 0;
#X connect 72 0 76 0;
#X connect 73 0 76 0;
#X connect 76 0 77 0;
#X connect 77 0 140 0;
#X connect 78 0 167 0;
#X connect 81 0 85 0;
#X connect 81 0 169 0;
#X connect 82 0 83 0;
#X connect 83 0 84 0;
#X connect 84 0 170 0;
#X connect 85 0 168 0;
#X connect 86 0 87 0;
#X connect 87 0 88 0;
#X connect 88 0 85 0;
#X connect 89 0 114 0;
#X connect 90 0 91 0;
#X connect 90 0 106 0;
#X connect 91 0 92 0;
#X connect 92 0 93 0;
#X connect 93 0 175 0;
#X connect 95 0 96 0;
#X connect 95 0 99 0;
#X connect 96 0 172 0;
#X connect 97 0 98 0;
#X connect 98 0 110 0;
#X connect 99 0 109 0;
#X connect 100 0 101 0;
#X connect 101 0 102 0;
#X connect 102 0 109 0;
#X connect 104 0 89 0;
#X connect 104 0 95 0;
#X connect 106 0 107 0;
#X connect 107 0 108 0;
#X connect 108 0 92 0;
#X connect 109 0 172 0;
#X connect 110 0 99 0;
#X connect 111 0 230 0;
#X connect 111 0 231 0;
#X connect 112 0 230 0;
#X connect 112 0 231 0;
#X connect 114 0 90 0;
#X connect 115 0 135 0;
#X connect 116 0 117 0;
#X connect 116 0 130 0;
#X connect 117 0 118 0;
#X connect 118 0 119 0;
#X connect 119 0 232 0;
#X connect 121 0 122 0;
#X connect 121 0 125 0;
#X connect 122 0 173 0;
#X connect 123 0 124 0;
#X connect 124 0 134 0;
#X connect 125 0 133 0;
#X connect 126 0 127 0;
#X connect 127 0 128 0;
#X connect 128 0 133 0;
#X connect 130 0 131 0;
#X connect 131 0 132 0;
#X connect 132 0 118 0;
#X connect 133 0 173 0;
#X connect 134 0 125 0;
#X connect 135 0 136 0;
#X connect 136 0 116 0;
#X connect 138 0 4 0;
#X connect 139 0 230 0;
#X connect 140 0 78 0;
#X connect 141 0 115 0;
#X connect 141 0 121 0;
#X connect 142 0 162 0;
#X connect 143 0 144 0;
#X connect 143 0 157 0;
#X connect 144 0 145 0;
#X connect 145 0 146 0;
#X connect 146 0 233 0;
#X connect 148 0 149 0;
#X connect 148 0 152 0;
#X connect 149 0 174 0;
#X connect 150 0 151 0;
#X connect 151 0 161 0;
#X connect 152 0 160 0;
#X connect 153 0 154 0;
#X connect 154 0 155 0;
#X connect 155 0 160 0;
#X connect 157 0 158 0;
#X connect 158 0 159 0;
#X connect 159 0 145 0;
#X connect 160 0 174 0;
#X connect 161 0 152 0;
#X connect 162 0 163 0;
#X connect 163 0 143 0;
#X connect 165 0 280 0;
#X connect 166 0 231 0;
#X connect 167 0 79 0;
#X connect 168 0 171 0;
#X connect 169 0 171 0;
#X connect 170 0 85 0;
#X connect 171 0 78 1;
#X connect 172 0 93 1;
#X connect 173 0 119 1;
#X connect 174 0 146 1;
#X connect 175 0 105 0;
#X connect 176 0 178 0;
#X connect 177 0 176 0;
#X connect 178 0 179 0;
#X connect 178 0 236 0;
#X connect 179 0 178 1;
#X connect 180 0 182 0;
#X connect 180 0 183 0;
#X connect 180 0 184 0;
#X connect 180 0 114 1;
#X connect 180 0 135 1;
#X connect 180 0 162 1;
#X connect 180 0 276 1;
#X connect 180 0 271 1;
#X connect 180 0 277 0;
#X connect 180 0 285 0;
#X connect 180 0 291 0;
#X connect 180 0 297 0;
#X connect 181 0 180 0;
#X connect 182 0 192 0;
#X connect 182 0 193 0;
#X connect 183 0 226 0;
#X connect 183 0 225 0;
#X connect 183 0 227 0;
#X connect 184 0 234 0;
#X connect 184 0 217 0;
#X connect 184 0 235 0;
#X connect 185 0 191 1;
#X connect 186 0 191 2;
#X connect 187 0 185 0;
#X connect 187 0 186 0;
#X connect 187 0 209 0;
#X connect 187 0 208 0;
#X connect 189 0 6 0;
#X connect 190 0 138 0;
#X connect 190 1 45 0;
#X connect 191 0 190 0;
#X connect 192 0 73 0;
#X connect 192 0 199 0;
#X connect 193 0 72 0;
#X connect 193 0 203 0;
#X connect 194 0 195 0;
#X connect 194 0 205 0;
#X connect 195 0 194 1;
#X connect 196 0 69 0;
#X connect 196 0 197 0;
#X connect 196 0 200 0;
#X connect 196 0 201 0;
#X connect 197 0 71 0;
#X connect 198 0 199 0;
#X connect 199 0 76 0;
#X connect 200 0 198 0;
#X connect 201 0 202 0;
#X connect 202 0 203 0;
#X connect 203 0 76 0;
#X connect 205 0 196 0;
#X connect 206 0 191 0;
#X connect 207 0 45 0;
#X connect 208 0 191 4;
#X connect 209 0 191 3;
#X connect 210 0 211 0;
#X connect 211 0 228 0;
#X connect 211 0 230 1;
#X connect 211 0 231 1;
#X connect 212 0 211 1;
#X connect 213 0 211 2;
#X connect 214 0 211 3;
#X connect 215 0 211 4;
#X connect 216 0 212 0;
#X connect 216 0 213 0;
#X connect 216 0 214 0;
#X connect 216 0 215 0;
#X connect 217 0 203 0;
#X connect 218 0 219 0;
#X connect 219 0 232 1;
#X connect 219 0 233 1;
#X connect 219 0 274 1;
#X connect 220 0 219 1;
#X connect 221 0 219 2;
#X connect 222 0 219 3;
#X connect 223 0 219 4;
#X connect 224 0 220 0;
#X connect 224 0 221 0;
#X connect 224 0 222 0;
#X connect 224 0 223 0;
#X connect 225 0 72 0;
#X connect 225 0 203 0;
#X connect 226 0 73 0;
#X connect 227 0 199 0;
#X connect 229 0 211 0;
#X connect 230 0 245 0;
#X connect 231 0 244 0;
#X connect 232 0 137 0;
#X connect 233 0 164 0;
#X connect 234 0 73 0;
#X connect 234 0 199 0;
#X connect 235 0 72 0;
#X connect 236 0 180 0;
#X connect 237 0 113 1;
#X connect 238 0 239 0;
#X connect 239 0 240 0;
#X connect 240 0 241 0;
#X connect 241 0 237 1;
#X connect 241 0 242 1;
#X connect 242 0 113 0;
#X connect 243 0 239 2;
#X connect 244 0 237 0;
#X connect 245 0 242 0;
#X connect 246 0 248 0;
#X connect 246 0 243 0;
#X connect 246 0 249 0;
#X connect 246 0 250 0;
#X connect 247 0 239 0;
#X connect 248 0 239 1;
#X connect 249 0 239 3;
#X connect 250 0 239 4;
#X connect 251 0 271 0;
#X connect 252 0 253 0;
#X connect 252 0 266 0;
#X connect 253 0 254 0;
#X connect 254 0 255 0;
#X connect 255 0 274 0;
#X connect 257 0 258 0;
#X connect 257 0 261 0;
#X connect 258 0 273 0;
#X connect 259 0 260 0;
#X connect 260 0 270 0;
#X connect 261 0 269 0;
#X connect 262 0 263 0;
#X connect 263 0 264 0;
#X connect 264 0 269 0;
#X connect 266 0 267 0;
#X connect 267 0 268 0;
#X connect 268 0 254 0;
#X connect 269 0 273 0;
#X connect 270 0 261 0;
#X connect 271 0 272 0;
#X connect 272 0 252 0;
#X connect 273 0 255 1;
#X connect 274 0 164 0;
#X connect 275 0 276 0;
#X connect 276 0 257 0;
#X connect 276 0 251 0;
#X connect 277 0 278 0;
#X connect 277 1 279 0;
#X connect 278 0 280 1;
#X connect 279 0 280 1;
#X connect 280 0 142 0;
#X connect 280 0 148 0;
#X connect 281 0 284 0;
#X connect 282 0 287 0;
#X connect 283 0 286 0;
#X connect 284 0 175 1;
#X connect 285 0 281 0;
#X connect 285 1 282 0;
#X connect 285 2 283 0;
#X connect 286 0 175 1;
#X connect 287 0 175 1;
#X connect 288 0 292 0;
#X connect 289 0 293 0;
#X connect 290 0 301 0;
#X connect 291 0 288 0;
#X connect 291 1 289 0;
#X connect 291 2 290 0;
#X connect 292 0 233 1;
#X connect 293 0 274 1;
#X connect 294 0 298 0;
#X connect 295 0 299 0;
#X connect 296 0 300 0;
#X connect 297 0 294 0;
#X connect 297 1 295 0;
#X connect 297 2 296 0;
#X connect 298 0 232 1;
#X connect 299 0 232 1;
#X connect 300 0 232 1;
#X connect 301 0 274 1;
