#N canvas 273 258 460 520 12;
#X obj 222 23 inlet;
#X obj 222 54 bng 15 250 50 0 empty empty empty 17 7 0 10 -262144 -1
-1;
#X obj 221 83 random 8;
#X floatatom 222 112 5 0 0 0 - - -;
#X obj 77 181 sel 1;
#X obj 123 182 sel 2;
#X obj 171 181 sel 3;
#X obj 224 182 sel 4;
#X obj 269 180 sel 5;
#X obj 322 177 sel 6;
#X obj 373 178 sel 7;
#X msg 88 217 62;
#X msg 39 220 60;
#X msg 127 218 64;
#X msg 170 216 65;
#X msg 225 214 67;
#X msg 272 219 69;
#X msg 322 217 71;
#X msg 373 213 72;
#X obj 32 182 sel 0;
#X floatatom 199 274 5 0 0 0 - - -;
#X obj 199 309 mtof;
#X floatatom 199 342 5 0 0 0 - - -;
#X obj 199 365 outlet;
#X connect 0 0 1 0;
#X connect 1 0 2 0;
#X connect 2 0 3 0;
#X connect 3 0 4 0;
#X connect 3 0 5 0;
#X connect 3 0 6 0;
#X connect 3 0 7 0;
#X connect 3 0 8 0;
#X connect 3 0 9 0;
#X connect 3 0 10 0;
#X connect 3 0 19 0;
#X connect 4 0 11 0;
#X connect 5 0 13 0;
#X connect 6 0 14 0;
#X connect 7 0 15 0;
#X connect 8 0 16 0;
#X connect 9 0 17 0;
#X connect 10 0 18 0;
#X connect 11 0 20 0;
#X connect 12 0 20 0;
#X connect 13 0 20 0;
#X connect 14 0 20 0;
#X connect 15 0 20 0;
#X connect 16 0 20 0;
#X connect 17 0 20 0;
#X connect 18 0 20 0;
#X connect 19 0 12 0;
#X connect 20 0 21 0;
#X connect 21 0 22 0;
#X connect 22 0 23 0;
