#N canvas 22 151 1512 771 12;
#X obj 138 4 inlet;
#X obj 138 35 bng 15 250 50 0 empty empty empty 17 7 0 10 -262144 -1
-1;
#X obj 137 64 random 8;
#X floatatom 209 163 5 0 0 0 - - -;
#X obj 64 232 sel 1;
#X obj 110 233 sel 2;
#X obj 158 232 sel 3;
#X obj 211 233 sel 4;
#X obj 256 231 sel 5;
#X obj 309 228 sel 6;
#X obj 360 229 sel 7;
#X msg 75 268 62;
#X msg 26 271 60;
#X msg 114 269 64;
#X msg 157 267 65;
#X msg 212 265 67;
#X msg 259 270 69;
#X msg 309 268 71;
#X msg 360 264 72;
#X obj 19 233 sel 0;
#X floatatom 186 325 5 0 0 0 - - -;
#X obj 186 360 mtof;
#X floatatom 186 393 5 0 0 0 - - -;
#X obj 493 714 outlet;
#X obj 714 5 inlet, f 6;
#X obj 212 135 spigot;
#X obj 558 76 sel 0;
#X obj 603 74 sel 1;
#X obj 656 74 sel 2;
#X obj 708 75 sel 3;
#X obj 757 74 sel 4;
#X obj 812 72 sel 5;
#X msg 212 102 1;
#X msg 252 103 0;
#X floatatom 832 479 5 0 0 0 - - -;
#X obj 687 548 sel 1;
#X obj 733 549 sel 2;
#X obj 781 548 sel 3;
#X obj 834 549 sel 4;
#X obj 879 547 sel 5;
#X obj 932 544 sel 6;
#X obj 983 545 sel 7;
#X obj 642 549 sel 0;
#X floatatom 809 641 5 0 0 0 - - -;
#X obj 809 676 mtof;
#X floatatom 806 697 5 0 0 0 - - -;
#X obj 835 451 spigot;
#X msg 835 418 1;
#X msg 869 418 0;
#X floatatom 713 31 5 0 0 0 - - -;
#X text 111 151 C Ionian;
#X floatatom 990 154 5 0 0 0 - - -;
#X obj 845 223 sel 1;
#X obj 891 224 sel 2;
#X obj 939 223 sel 3;
#X obj 992 224 sel 4;
#X obj 1037 222 sel 5;
#X obj 1090 219 sel 6;
#X obj 1141 220 sel 7;
#X obj 800 224 sel 0;
#X floatatom 967 316 5 0 0 0 - - -;
#X obj 967 351 mtof;
#X floatatom 967 384 5 0 0 0 - - -;
#X obj 993 126 spigot;
#X msg 988 98 1;
#X msg 1022 98 0;
#X text 836 152 C Aeolian;
#X floatatom 537 297 5 0 0 0 - - -;
#X obj 392 366 sel 1;
#X obj 438 367 sel 2;
#X obj 486 366 sel 3;
#X obj 539 367 sel 4;
#X obj 584 365 sel 5;
#X obj 637 362 sel 6;
#X obj 688 363 sel 7;
#X obj 347 367 sel 0;
#X floatatom 514 459 5 0 0 0 - - -;
#X obj 514 494 mtof;
#X floatatom 514 527 5 0 0 0 - - -;
#X obj 540 269 spigot;
#X msg 535 241 1;
#X msg 569 241 0;
#X msg 807 262 48;
#X msg 856 259 50;
#X msg 895 260 51;
#X msg 938 258 53;
#X msg 993 256 55;
#X msg 1040 261 56;
#X msg 1090 259 58;
#X msg 1141 255 60;
#X text 649 487 C Maj Pent;
#X msg 354 405 48;
#X msg 403 402 50;
#X msg 442 403 52;
#X msg 485 401 53;
#X msg 540 399 55;
#X msg 587 404 57;
#X msg 637 402 60;
#X msg 688 398 62;
#X msg 649 587 60;
#X text 418 285 C Maj Pent;
#X floatatom 1218 459 5 0 0 0 - - -;
#X obj 1073 528 sel 1;
#X obj 1119 529 sel 2;
#X obj 1167 528 sel 3;
#X obj 1220 529 sel 4;
#X obj 1265 527 sel 5;
#X obj 1318 524 sel 6;
#X obj 1369 525 sel 7;
#X obj 1028 529 sel 0;
#X floatatom 1195 621 5 0 0 0 - - -;
#X obj 1195 656 mtof;
#X floatatom 1192 677 5 0 0 0 - - -;
#X obj 1221 431 spigot;
#X msg 1221 398 1;
#X msg 1255 398 0;
#X text 1035 467 C Min Pent;
#X msg 780 583 66;
#X msg 835 581 67;
#X msg 698 584 62;
#X msg 737 585 64;
#X msg 882 586 69;
#X msg 932 584 71;
#X msg 983 580 72;
#X msg 1035 567 48;
#X msg 1084 564 51;
#X msg 1123 565 53;
#X msg 1166 563 55;
#X msg 1221 561 58;
#X msg 1268 566 60;
#X msg 1318 564 63;
#X msg 1369 560 65;
#X floatatom 225 505 5 0 0 0 - - -;
#X obj 80 574 sel 1;
#X obj 126 575 sel 2;
#X obj 174 574 sel 3;
#X obj 227 575 sel 4;
#X obj 272 573 sel 5;
#X obj 325 570 sel 6;
#X obj 376 571 sel 7;
#X obj 35 575 sel 0;
#X floatatom 202 667 5 0 0 0 - - -;
#X obj 202 702 mtof;
#X floatatom 281 723 5 0 0 0 - - -;
#X obj 228 477 spigot;
#X msg 228 444 1;
#X msg 262 444 0;
#X text 42 513 C 4th5th;
#X msg 42 613 53;
#X msg 91 610 55;
#X msg 130 611 60;
#X msg 173 609 65;
#X msg 227 607 67;
#X msg 275 612 72;
#X msg 325 610 77;
#X msg 376 606 79;
#X connect 0 0 1 0;
#X connect 1 0 2 0;
#X connect 2 0 25 0;
#X connect 2 0 46 0;
#X connect 2 0 63 0;
#X connect 2 0 79 0;
#X connect 2 0 113 0;
#X connect 2 0 144 0;
#X connect 3 0 4 0;
#X connect 3 0 5 0;
#X connect 3 0 6 0;
#X connect 3 0 7 0;
#X connect 3 0 8 0;
#X connect 3 0 9 0;
#X connect 3 0 10 0;
#X connect 3 0 19 0;
#X connect 4 0 11 0;
#X connect 5 0 13 0;
#X connect 6 0 14 0;
#X connect 7 0 15 0;
#X connect 8 0 16 0;
#X connect 9 0 17 0;
#X connect 10 0 18 0;
#X connect 11 0 20 0;
#X connect 12 0 20 0;
#X connect 13 0 20 0;
#X connect 14 0 20 0;
#X connect 15 0 20 0;
#X connect 16 0 20 0;
#X connect 17 0 20 0;
#X connect 18 0 20 0;
#X connect 19 0 12 0;
#X connect 20 0 21 0;
#X connect 21 0 22 0;
#X connect 22 0 23 0;
#X connect 24 0 49 0;
#X connect 25 0 3 0;
#X connect 26 0 32 0;
#X connect 26 1 33 0;
#X connect 27 0 114 0;
#X connect 27 1 115 0;
#X connect 28 0 145 0;
#X connect 28 1 146 0;
#X connect 29 0 47 0;
#X connect 29 1 48 0;
#X connect 30 0 64 0;
#X connect 30 1 65 0;
#X connect 32 0 25 1;
#X connect 33 0 25 1;
#X connect 34 0 35 0;
#X connect 34 0 36 0;
#X connect 34 0 37 0;
#X connect 34 0 38 0;
#X connect 34 0 39 0;
#X connect 34 0 40 0;
#X connect 34 0 41 0;
#X connect 34 0 42 0;
#X connect 35 0 119 0;
#X connect 36 0 120 0;
#X connect 37 0 117 0;
#X connect 38 0 118 0;
#X connect 39 0 121 0;
#X connect 40 0 122 0;
#X connect 41 0 123 0;
#X connect 42 0 99 0;
#X connect 43 0 44 0;
#X connect 44 0 45 0;
#X connect 45 0 23 0;
#X connect 46 0 34 0;
#X connect 47 0 46 1;
#X connect 48 0 46 1;
#X connect 49 0 26 0;
#X connect 49 0 27 0;
#X connect 49 0 28 0;
#X connect 49 0 29 0;
#X connect 49 0 30 0;
#X connect 51 0 52 0;
#X connect 51 0 53 0;
#X connect 51 0 54 0;
#X connect 51 0 55 0;
#X connect 51 0 56 0;
#X connect 51 0 57 0;
#X connect 51 0 58 0;
#X connect 51 0 59 0;
#X connect 52 0 83 0;
#X connect 53 0 84 0;
#X connect 54 0 85 0;
#X connect 55 0 86 0;
#X connect 56 0 87 0;
#X connect 57 0 88 0;
#X connect 58 0 89 0;
#X connect 59 0 82 0;
#X connect 60 0 61 0;
#X connect 61 0 62 0;
#X connect 62 0 23 0;
#X connect 63 0 51 0;
#X connect 64 0 63 1;
#X connect 65 0 63 1;
#X connect 67 0 68 0;
#X connect 67 0 69 0;
#X connect 67 0 70 0;
#X connect 67 0 71 0;
#X connect 67 0 72 0;
#X connect 67 0 73 0;
#X connect 67 0 74 0;
#X connect 67 0 75 0;
#X connect 68 0 92 0;
#X connect 69 0 93 0;
#X connect 70 0 94 0;
#X connect 71 0 95 0;
#X connect 72 0 96 0;
#X connect 73 0 97 0;
#X connect 74 0 98 0;
#X connect 75 0 91 0;
#X connect 76 0 77 0;
#X connect 77 0 78 0;
#X connect 78 0 23 0;
#X connect 79 0 67 0;
#X connect 80 0 79 1;
#X connect 81 0 79 1;
#X connect 82 0 60 0;
#X connect 83 0 60 0;
#X connect 84 0 60 0;
#X connect 85 0 60 0;
#X connect 86 0 60 0;
#X connect 87 0 60 0;
#X connect 88 0 60 0;
#X connect 89 0 60 0;
#X connect 91 0 76 0;
#X connect 92 0 76 0;
#X connect 93 0 76 0;
#X connect 94 0 76 0;
#X connect 95 0 76 0;
#X connect 96 0 76 0;
#X connect 97 0 76 0;
#X connect 98 0 76 0;
#X connect 99 0 43 0;
#X connect 101 0 102 0;
#X connect 101 0 103 0;
#X connect 101 0 104 0;
#X connect 101 0 105 0;
#X connect 101 0 106 0;
#X connect 101 0 107 0;
#X connect 101 0 108 0;
#X connect 101 0 109 0;
#X connect 102 0 125 0;
#X connect 103 0 126 0;
#X connect 104 0 127 0;
#X connect 105 0 128 0;
#X connect 106 0 129 0;
#X connect 107 0 130 0;
#X connect 108 0 131 0;
#X connect 109 0 124 0;
#X connect 110 0 111 0;
#X connect 111 0 112 0;
#X connect 112 0 23 0;
#X connect 113 0 101 0;
#X connect 114 0 113 1;
#X connect 115 0 113 1;
#X connect 117 0 43 0;
#X connect 118 0 43 0;
#X connect 119 0 43 0;
#X connect 120 0 43 0;
#X connect 121 0 43 0;
#X connect 122 0 43 0;
#X connect 123 0 43 0;
#X connect 124 0 110 0;
#X connect 125 0 110 0;
#X connect 126 0 110 0;
#X connect 127 0 110 0;
#X connect 128 0 110 0;
#X connect 129 0 110 0;
#X connect 130 0 110 0;
#X connect 131 0 110 0;
#X connect 132 0 133 0;
#X connect 132 0 134 0;
#X connect 132 0 135 0;
#X connect 132 0 136 0;
#X connect 132 0 137 0;
#X connect 132 0 138 0;
#X connect 132 0 139 0;
#X connect 132 0 140 0;
#X connect 133 0 149 0;
#X connect 134 0 150 0;
#X connect 135 0 151 0;
#X connect 136 0 152 0;
#X connect 137 0 153 0;
#X connect 138 0 154 0;
#X connect 139 0 155 0;
#X connect 140 0 148 0;
#X connect 141 0 142 0;
#X connect 142 0 143 0;
#X connect 143 0 23 0;
#X connect 144 0 132 0;
#X connect 145 0 144 1;
#X connect 146 0 144 1;
#X connect 148 0 141 0;
#X connect 149 0 141 0;
#X connect 150 0 141 0;
#X connect 151 0 141 0;
#X connect 152 0 141 0;
#X connect 153 0 141 0;
#X connect 154 0 141 0;
#X connect 155 0 141 0;
